# File created by Blade
# Date/Time:  Wed Jan 21 17:57:11 2015
# Frame Rate: 120.000 fps
#------------------------------------------------------
:FULLY-SPECIFIED
:DEGREES
1158
root 19.330078 29.724639 -16.377466 -101.346711 -27.421327 -178.269247
Spine 60.828065 22.115938 -20.467704
Head 147.116409 -46.569910 174.754365
LeftShoulder 21.659637 -43.163758 -3.568535
LeftArm 23.499248 -14.359548 -21.115791
LeftForeArm -84.779884 0.000000 81.850636
LeftHand 4.972496 -0.000000 -8.220207
LeftHandThumb1 -26.253704 0.000000 33.147579
RightShoulder 16.514351 52.888988 -45.353940
RightArm 49.766104 26.416523 29.517770
RightForeArm -36.391526 -0.000000 70.175622
RightHand -1.520624 -0.000000 27.647269
RightHandThumb1 -24.326973 -0.000000 -32.862282
LeftUpLeg -90.624344 28.054785 25.047326
LeftLeg 4.304579 -0.000000 -0.000000
LeftFoot -13.989936 4.730063 -21.405585
LeftToeBase 34.412929 -0.000000 -0.000000
RightUpLeg -71.022378 -34.216946 14.579982
RightLeg -6.893984 -0.000000 0.000000
RightFoot -15.047329 -12.355923 33.794843
RightToeBase 28.840013 -0.000000 -0.000000
1159
root 19.326667 29.726237 -16.375867 -101.360664 -27.364106 -178.314399
Spine 60.823498 22.098001 -20.400879
Head 147.080708 -46.399387 174.871511
LeftShoulder 21.652650 -43.057353 -3.565863
LeftArm 23.485597 -14.332568 -21.064695
LeftForeArm -84.565393 0.000000 81.631119
LeftHand 5.009838 -0.000000 -8.388157
LeftHandThumb1 -26.253704 0.000000 33.147579
RightShoulder 16.668527 52.988222 -45.228443
RightArm 49.673217 26.174333 29.413280
RightForeArm -36.356077 -0.000000 69.990179
RightHand -1.521557 0.000000 27.501764
RightHandThumb1 -24.326973 -0.000000 -32.862282
LeftUpLeg -90.556523 28.002138 25.064841
LeftLeg 4.290644 -0.000000 -0.000000
LeftFoot -14.004648 4.789518 -21.418079
LeftToeBase 34.381052 -0.000000 -0.000000
RightUpLeg -70.968850 -34.246704 14.452915
RightLeg -6.916257 -0.000000 0.000000
RightFoot -14.995805 -12.475673 33.890413
RightToeBase 28.898119 -0.000000 -0.000000
1160
root 19.323689 29.727778 -16.374014 -101.385625 -27.314399 -178.355221
Spine 60.853080 22.082472 -20.311602
Head 147.128088 -46.212918 174.919178
LeftShoulder 21.610165 -43.022801 -3.559214
LeftArm 23.483759 -14.250750 -21.016832
LeftForeArm -84.443873 0.000000 81.396036
LeftHand 5.051381 0.000000 -8.537598
LeftHandThumb1 -26.253704 0.000000 33.147579
RightShoulder 16.806465 53.178592 -45.077472
RightArm 49.580272 25.857186 29.305347
RightForeArm -36.273416 -0.000000 69.776077
RightHand -1.479436 -0.000000 27.354394
RightHandThumb1 -24.326973 -0.000000 -32.862282
LeftUpLeg -90.499034 27.947841 25.068180
LeftLeg 4.289658 -0.000000 -0.000000
LeftFoot -14.024201 4.822970 -21.453461
LeftToeBase 34.372757 -0.000000 -0.000000
RightUpLeg -70.913786 -34.277015 14.336892
RightLeg -6.923964 -0.000000 0.000000
RightFoot -14.969475 -12.561516 33.946436
RightToeBase 28.985467 -0.000000 -0.000000
1161
root 19.321144 29.729478 -16.372731 -101.413707 -27.263096 -178.382227
Spine 60.867153 22.084766 -20.209423
Head 147.152228 -46.018731 174.994893
LeftShoulder 21.603065 -43.020835 -3.561382
LeftArm 23.418423 -14.148195 -21.003363
LeftForeArm -84.319438 -0.000000 81.171873
LeftHand 5.127289 -0.000000 -8.735617
LeftHandThumb1 -26.253704 0.000000 33.147579
RightShoulder 16.959355 53.376262 -44.902071
RightArm 49.468835 25.510907 29.224051
RightForeArm -36.220724 -0.000000 69.578241
RightHand -1.439677 -0.000000 27.135632
RightHandThumb1 -24.326973 -0.000000 -32.862282
LeftUpLeg -90.428437 27.907299 25.090591
LeftLeg 4.285646 -0.000000 -0.000000
LeftFoot -14.048198 4.874250 -21.461979
LeftToeBase 34.379124 -0.000000 -0.000000
RightUpLeg -70.867304 -34.297190 14.232062
RightLeg -6.928182 -0.000000 0.000000
RightFoot -14.926923 -12.619118 34.014287
RightToeBase 29.006570 -0.000000 -0.000000
1162
root 19.318906 29.731017 -16.370795 -101.436912 -27.211033 -178.409254
Spine 60.860099 22.076290 -20.096736
Head 147.094745 -45.838646 175.093788
LeftShoulder 21.603521 -42.929664 -3.603164
LeftArm 23.394149 -14.118433 -20.932900
LeftForeArm -83.956824 -0.000000 80.931128
LeftHand 5.097884 0.000000 -8.808439
LeftHandThumb1 -26.253704 0.000000 33.147579
RightShoulder 17.116439 53.551078 -44.780769
RightArm 49.301696 25.186045 29.217207
RightForeArm -36.166454 -0.000000 69.453640
RightHand -1.391715 -0.000000 26.887336
RightHandThumb1 -24.326973 -0.000000 -32.862282
LeftUpLeg -90.355699 27.869168 25.126321
LeftLeg 4.282008 -0.000000 -0.000000
LeftFoot -14.078143 4.933831 -21.485133
LeftToeBase 34.384774 -0.000000 -0.000000
RightUpLeg -70.808882 -34.305092 14.096416
RightLeg -6.925275 -0.000000 0.000000
RightFoot -14.928017 -12.694651 34.068084
RightToeBase 28.995413 -0.000000 -0.000000
1163
root 19.317515 29.732844 -16.368506 -101.486669 -27.150093 -178.423653
Spine 60.864151 22.060553 -19.994555
Head 147.014987 -45.713479 175.199206
LeftShoulder 21.552430 -42.827663 -3.582728
LeftArm 23.314736 -14.124919 -20.880976
LeftForeArm -83.726785 -0.000000 80.704207
LeftHand 5.146655 -0.000000 -8.684546
LeftHandThumb1 -26.253704 0.000000 33.147579
RightShoulder 17.355047 53.788380 -44.564041
RightArm 49.101552 24.804870 29.145490
RightForeArm -36.055818 -0.000000 69.310270
RightHand -1.325174 -0.000000 26.539295
RightHandThumb1 -24.326973 -0.000000 -32.862282
LeftUpLeg -90.245340 27.834245 25.179499
LeftLeg 4.269348 -0.000000 -0.000000
LeftFoot -14.112740 5.014549 -21.499189
LeftToeBase 34.423586 -0.000000 -0.000000
RightUpLeg -70.689544 -34.293202 13.884830
RightLeg -6.930919 -0.000000 0.000000
RightFoot -14.947249 -12.810321 34.098533
RightToeBase 29.053383 -0.000000 -0.000000
1164
root 19.315483 29.734168 -16.364118 -101.533959 -27.104783 -178.430746
Spine 60.854849 22.012303 -19.878715
Head 146.906179 -45.589256 175.271258
LeftShoulder 21.424384 -42.721783 -3.563323
LeftArm 23.277226 -14.117036 -20.837751
LeftForeArm -83.434181 -0.000000 80.412815
LeftHand 5.177692 -0.000000 -8.903265
LeftHandThumb1 -26.253704 0.000000 33.147579
RightShoulder 17.482382 53.951503 -44.485506
RightArm 48.948517 24.478724 29.210959
RightForeArm -35.974762 0.000000 69.226511
RightHand -1.224660 -0.000000 26.047482
RightHandThumb1 -24.326973 -0.000000 -32.862282
LeftUpLeg -90.147197 27.802869 25.262320
LeftLeg 4.277227 -0.000000 -0.000000
LeftFoot -14.161889 5.099330 -21.502731
LeftToeBase 34.361848 -0.000000 -0.000000
RightUpLeg -70.611301 -34.287023 13.735924
RightLeg -6.915574 -0.000000 0.000000
RightFoot -14.950649 -12.870293 34.150623
RightToeBase 29.030778 -0.000000 -0.000000
